<svg width="1920" height="4244" viewBox="0 0 1920 4244" fill="none" xmlns="http://www.w3.org/2000/svg">
<g clip-path="url(#clip0_13_541)">
<path d="M730.5 -84C800.166 4.16666 911 232.1 797 438.5C654.5 696.5 355.5 771.5 314.5 1186C273.5 1600.5 559 1893.5 878.5 1913.5C1198 1933.5 1415.5 1689 1198 1437.5C980.5 1186 450 1567 695 2301C940 3035 1443 3028.5 1592.5 2987.5C1742 2946.5 1762.5 2429.5 1320.5 2640.5C878.5 2851.5 1116.5 3286 1198 3395C1279.5 3504 1279.5 4028 797 4061.5C411 4088.3 192.167 4358 131 4489.5" stroke="#00BBFF" stroke-width="50" stroke-dasharray="50 200"/>
</g>
<defs>
<clipPath id="clip0_13_541">
<rect width="1920" height="4244" fill="white"/>
</clipPath>
</defs>
</svg>
