<svg width="1920" height="4244" viewBox="0 0 1920 4244" fill="none" xmlns="http://www.w3.org/2000/svg">
<g clip-path="url(#clip0_13_541)">
<path d="M730.5 -84C800.166 4.16666 911 232.1 797 438.5C654.5 696.5 355.5 771.5 314.5 1186C273.5 1600.5 559 1893.5 878.5 1913.5C1198 1933.5 1415.5 1689 1198 1437.5C980.5 1186 450 1567 695 2301C940 3035 1443 3028.5 1592.5 2987.5C1742 2946.5 1762.5 2429.5 1320.5 2640.5C878.5 2851.5 1116.5 3286 1198 3395C1279.5 3504 1279.5 4028 797 4061.5C411 4088.3 192.167 4358 131 4489.5" stroke="#00BBFF" stroke-width="200"/>
<path d="M718 425C726 423.5 743.4 416.8 749 402C755.5 419 769 432 790.5 402C801 422 814.5 423 825.5 402C832.7 416.8 843.833 423.5 848.5 425" stroke="white" stroke-width="10"/>
<path d="M509 661C515.437 659.761 529.437 654.226 533.943 642C539.172 656.043 550.034 666.783 567.333 642C575.782 658.522 586.644 659.348 595.494 642C601.287 654.226 610.245 659.761 614 661" stroke="white" stroke-width="5"/>
<path d="M235 1406C243 1404.5 260.4 1397.8 266 1383C272.5 1400 286 1413 307.5 1383C318 1403 331.5 1404 342.5 1383C349.7 1397.8 360.833 1404.5 365.5 1406" stroke="white" stroke-width="10"/>
<path d="M664 1891C672 1889.5 689.4 1882.8 695 1868C701.5 1885 715 1898 736.5 1868C747 1888 760.5 1889 771.5 1868C778.7 1882.8 789.833 1889.5 794.5 1891" stroke="white" stroke-width="10"/>
<path d="M1219 1610C1227 1608.5 1244.4 1601.8 1250 1587C1256.5 1604 1270 1617 1291.5 1587C1302 1607 1315.5 1608 1326.5 1587C1333.7 1601.8 1344.83 1608.5 1349.5 1610" stroke="white" stroke-width="10"/>
<path d="M785 1483C791.498 1481.76 805.631 1476.23 810.18 1464C815.46 1478.04 826.425 1488.78 843.889 1464C852.418 1480.52 863.383 1481.35 872.318 1464C878.166 1476.23 887.209 1481.76 891 1483" stroke="white" stroke-width="5"/>
<path d="M653 2333C659.437 2331.83 673.437 2326.58 677.943 2315C683.172 2328.3 694.034 2338.48 711.333 2315C719.782 2330.65 730.644 2331.43 739.494 2315C745.287 2326.58 754.245 2331.83 758 2333" stroke="white" stroke-width="5"/>
<path d="M891 2733C899 2731.5 916.4 2724.8 922 2710C928.5 2727 942 2740 963.5 2710C974 2730 987.5 2731 998.5 2710C1005.7 2724.8 1016.83 2731.5 1021.5 2733" stroke="white" stroke-width="10"/>
<path d="M1624 2800C1632 2798.5 1649.4 2791.8 1655 2777C1661.5 2794 1675 2807 1696.5 2777C1707 2797 1720.5 2798 1731.5 2777C1738.7 2791.8 1749.83 2798.5 1754.5 2800" stroke="white" stroke-width="10"/>
<path d="M1161 3492C1167.5 3490.76 1181.63 3485.23 1186.18 3473C1191.46 3487.04 1202.43 3497.78 1219.89 3473C1228.42 3489.52 1239.38 3490.35 1248.32 3473C1254.17 3485.23 1263.21 3490.76 1267 3492" stroke="white" stroke-width="5"/>
<path d="M1083 3918C1091 3916.5 1108.4 3909.8 1114 3895C1120.5 3912 1134 3925 1155.5 3895C1166 3915 1179.5 3916 1190.5 3895C1197.7 3909.8 1208.83 3916.5 1213.5 3918" stroke="white" stroke-width="10"/>
<path d="M559 4125C565.437 4123.76 579.437 4118.23 583.943 4106C589.172 4120.04 600.034 4130.78 617.333 4106C625.782 4122.52 636.644 4123.35 645.494 4106C651.287 4118.23 660.245 4123.76 664 4125" stroke="white" stroke-width="5"/>
</g>
<defs>
<clipPath id="clip0_13_541">
<rect width="1920" height="4244" fill="white"/>
</clipPath>
</defs>
</svg>
